<?xml version="1.0" encoding="UTF-8"?>
<svg xmlns="http://www.w3.org/2000/svg" xmlns:xlink="http://www.w3.org/1999/xlink" width="100px" height="100px" viewBox="0 0 100 100" version="1.1">
<g id="surface1">
<path style=" stroke:none;fill-rule:nonzero;fill:rgb(6.666667%,52.941179%,0%);fill-opacity:1;" d="M 42.835938 35.761719 C 42.261719 35.761719 28.84375 35.433594 27.933594 6.730469 C 27.898438 5.625 28.765625 4.703125 29.867188 4.667969 C 30.398438 4.648438 30.914062 4.84375 31.300781 5.207031 C 31.6875 5.570312 31.914062 6.074219 31.929688 6.601562 C 32.707031 31.078125 42.734375 31.761719 42.835938 31.761719 C 43.9375 31.761719 44.835938 32.660156 44.835938 33.761719 C 44.835938 34.867188 43.9375 35.761719 42.835938 35.761719 Z M 42.835938 35.761719 "/>
<path style=" stroke:none;fill-rule:nonzero;fill:rgb(47.058824%,92.941177%,2.745098%);fill-opacity:1;" d="M 44.183594 13.402344 C 44.183594 13.402344 59.457031 25.714844 49.785156 35.320312 L 36.605469 39.472656 C 36.605469 39.472656 50.359375 24.976562 44.183594 13.402344 Z M 44.183594 13.402344 "/>
<path style=" stroke:none;fill-rule:nonzero;fill:rgb(6.666667%,52.941179%,0%);fill-opacity:1;" d="M 36.605469 41.472656 C 35.808594 41.472656 35.085938 40.996094 34.769531 40.261719 C 34.453125 39.53125 34.605469 38.679688 35.152344 38.097656 C 35.28125 37.964844 47.828125 24.480469 42.421875 14.34375 C 41.972656 13.503906 42.179688 12.46875 42.910156 11.863281 C 43.640625 11.253906 44.699219 11.25 45.441406 11.84375 C 45.8125 12.144531 54.550781 19.28125 54.980469 27.503906 C 55.15625 30.960938 53.886719 34.066406 51.195312 36.738281 C 50.96875 36.964844 50.691406 37.128906 50.386719 37.226562 L 37.207031 41.378906 C 37.011719 41.441406 36.808594 41.472656 36.605469 41.472656 Z M 47.777344 20.121094 C 47.71875 26.003906 44.765625 31.703125 42.128906 35.636719 L 48.703125 33.5625 C 50.347656 31.796875 51.09375 29.882812 50.984375 27.71875 C 50.847656 25.003906 49.40625 22.320312 47.777344 20.121094 Z M 47.777344 20.121094 "/>
<path style=" stroke:none;fill-rule:nonzero;fill:rgb(47.058824%,92.941177%,2.745098%);fill-opacity:1;" d="M 44.015625 36.375 C 44.015625 36.375 28.0625 38.960938 17.292969 32.015625 C 17.292969 32.015625 18.515625 43.414062 28.519531 45.859375 C 28.519531 45.859375 43.039062 50.214844 44.015625 36.375 Z M 44.015625 36.375 "/>
<path style=" stroke:none;fill-rule:nonzero;fill:rgb(6.666667%,52.941179%,0%);fill-opacity:1;" d="M 33.402344 48.507812 C 32.15625 48.507812 30.867188 48.386719 29.578125 48.152344 C 29.039062 48.050781 28.507812 47.953125 28.046875 47.796875 L 28.042969 47.800781 C 16.808594 45.054688 15.359375 32.75 15.304688 32.226562 C 15.222656 31.460938 15.585938 30.714844 16.242188 30.3125 C 16.898438 29.90625 17.726562 29.917969 18.375 30.332031 C 24.15625 34.0625 31.664062 34.84375 36.941406 34.84375 C 40.875 34.84375 43.667969 34.40625 43.695312 34.398438 C 44.300781 34.304688 44.914062 34.488281 45.363281 34.898438 C 45.8125 35.3125 46.050781 35.90625 46.011719 36.515625 C 45.472656 44.136719 40.878906 48.507812 33.402344 48.507812 Z M 29.09375 43.945312 C 29.191406 43.972656 31.089844 44.507812 33.402344 44.507812 C 37.957031 44.507812 40.675781 42.589844 41.652344 38.652344 C 40.410156 38.757812 38.796875 38.847656 36.941406 38.847656 C 32.296875 38.847656 26.054688 38.277344 20.367188 35.878906 C 21.566406 38.902344 24.03125 42.703125 28.996094 43.917969 C 29.027344 43.925781 29.0625 43.933594 29.09375 43.945312 Z M 29.09375 43.945312 "/>
<path style=" stroke:none;fill-rule:nonzero;fill:rgb(47.058824%,92.941177%,2.745098%);fill-opacity:1;" d="M 43.625 34.613281 C 43.625 34.613281 59.066406 29.835938 65.625 18.828125 C 65.625 18.828125 69.59375 29.582031 61.722656 36.21875 C 61.722656 36.21875 50.652344 46.574219 43.625 34.613281 Z M 43.625 34.613281 "/>
<path style=" stroke:none;fill-rule:nonzero;fill:rgb(6.666667%,52.941179%,0%);fill-opacity:1;" d="M 52.226562 42.378906 C 49.324219 42.378906 45.179688 41.207031 41.902344 35.625 C 41.589844 35.097656 41.539062 34.457031 41.761719 33.890625 C 41.980469 33.320312 42.449219 32.882812 43.035156 32.699219 C 43.179688 32.65625 57.828125 28.003906 63.90625 17.800781 C 64.300781 17.140625 65.039062 16.765625 65.808594 16.835938 C 66.574219 16.90625 67.234375 17.410156 67.5 18.132812 C 67.683594 18.625 71.84375 30.261719 63.046875 37.71875 C 62.515625 38.203125 57.78125 42.378906 52.226562 42.378906 Z M 46.753906 35.609375 C 48.332031 37.46875 50.136719 38.378906 52.226562 38.378906 C 56.367188 38.378906 60.316406 34.796875 60.355469 34.757812 C 60.378906 34.734375 60.40625 34.710938 60.433594 34.691406 C 64.300781 31.429688 64.828125 26.929688 64.570312 23.679688 C 58.960938 30.191406 50.84375 33.992188 46.753906 35.609375 Z M 46.753906 35.609375 "/>
<path style=" stroke:none;fill-rule:nonzero;fill:rgb(47.450981%,0.784314%,66.666669%);fill-opacity:1;" d="M 45.707031 44.125 C 45.707031 48.5 41.851562 52.042969 37.042969 52.042969 C 32.230469 52.042969 28.375 48.5 28.375 44.125 L 28.375 42.542969 C 28.375 38.167969 32.230469 34.625 37.042969 34.625 C 41.851562 34.625 45.707031 38.167969 45.707031 42.542969 Z M 45.707031 44.125 "/>
<path style=" stroke:none;fill-rule:nonzero;fill:rgb(33.725491%,0%,47.843137%);fill-opacity:1;" d="M 37.042969 54.042969 C 31.160156 54.042969 26.375 49.59375 26.375 44.125 L 26.375 42.542969 C 26.375 37.074219 31.160156 32.625 37.042969 32.625 C 42.921875 32.625 47.707031 37.074219 47.707031 42.542969 L 47.707031 44.125 C 47.707031 49.59375 42.921875 54.042969 37.042969 54.042969 Z M 37.042969 36.625 C 33.367188 36.625 30.375 39.277344 30.375 42.542969 L 30.375 44.125 C 30.375 47.386719 33.367188 50.042969 37.042969 50.042969 C 40.71875 50.042969 43.707031 47.386719 43.707031 44.125 L 43.707031 42.542969 C 43.707031 39.277344 40.71875 36.625 37.042969 36.625 Z M 37.042969 36.625 "/>
<path style=" stroke:none;fill-rule:nonzero;fill:rgb(47.450981%,0.784314%,66.666669%);fill-opacity:1;" d="M 38.042969 56.167969 C 38.042969 60.539062 34.183594 64.085938 29.375 64.085938 C 24.5625 64.085938 20.707031 60.539062 20.707031 56.167969 L 20.707031 54.585938 C 20.707031 50.210938 24.5625 46.667969 29.375 46.667969 C 34.183594 46.667969 38.042969 50.210938 38.042969 54.585938 Z M 38.042969 56.167969 "/>
<path style=" stroke:none;fill-rule:nonzero;fill:rgb(33.725491%,0%,47.843137%);fill-opacity:1;" d="M 29.375 66.085938 C 23.492188 66.085938 18.707031 61.636719 18.707031 56.167969 L 18.707031 54.585938 C 18.707031 49.117188 23.492188 44.667969 29.375 44.667969 C 35.257812 44.667969 40.042969 49.117188 40.042969 54.585938 L 40.042969 56.167969 C 40.042969 61.636719 35.257812 66.085938 29.375 66.085938 Z M 29.375 48.667969 C 25.699219 48.667969 22.707031 51.320312 22.707031 54.585938 L 22.707031 56.167969 C 22.707031 59.429688 25.699219 62.085938 29.375 62.085938 C 33.050781 62.085938 36.042969 59.429688 36.042969 56.167969 L 36.042969 54.585938 C 36.042969 51.320312 33.050781 48.667969 29.375 48.667969 Z M 29.375 48.667969 "/>
<path style=" stroke:none;fill-rule:nonzero;fill:rgb(47.450981%,0.784314%,66.666669%);fill-opacity:1;" d="M 40.042969 69.070312 C 40.042969 73.445312 36.183594 76.988281 31.375 76.988281 C 26.566406 76.988281 22.707031 73.445312 22.707031 69.070312 L 22.707031 67.488281 C 22.707031 63.117188 26.566406 59.570312 31.375 59.570312 C 36.183594 59.570312 40.042969 63.117188 40.042969 67.488281 Z M 40.042969 69.070312 "/>
<path style=" stroke:none;fill-rule:nonzero;fill:rgb(33.725491%,0%,47.843137%);fill-opacity:1;" d="M 31.375 78.988281 C 25.492188 78.988281 20.707031 74.539062 20.707031 69.070312 L 20.707031 67.488281 C 20.707031 62.019531 25.492188 57.570312 31.375 57.570312 C 37.257812 57.570312 42.042969 62.019531 42.042969 67.488281 L 42.042969 69.070312 C 42.042969 74.539062 37.257812 78.988281 31.375 78.988281 Z M 31.375 61.570312 C 27.699219 61.570312 24.707031 64.226562 24.707031 67.488281 L 24.707031 69.070312 C 24.707031 72.335938 27.699219 74.988281 31.375 74.988281 C 35.050781 74.988281 38.042969 72.335938 38.042969 69.070312 L 38.042969 67.488281 C 38.042969 64.226562 35.050781 61.570312 31.375 61.570312 Z M 31.375 61.570312 "/>
<path style=" stroke:none;fill-rule:nonzero;fill:rgb(47.450981%,0.784314%,66.666669%);fill-opacity:1;" d="M 48.707031 79.394531 C 48.707031 83.765625 45.019531 87.3125 40.207031 87.3125 C 35.398438 87.3125 31.707031 83.765625 31.707031 79.394531 L 31.707031 77.8125 C 31.707031 73.4375 35.398438 69.894531 40.207031 69.894531 C 45.019531 69.894531 48.707031 73.4375 48.707031 77.8125 Z M 48.707031 79.394531 "/>
<path style=" stroke:none;fill-rule:nonzero;fill:rgb(33.725491%,0%,47.843137%);fill-opacity:1;" d="M 40.207031 89.3125 C 34.320312 89.3125 29.707031 84.957031 29.707031 79.394531 L 29.707031 77.8125 C 29.707031 72.25 34.320312 67.894531 40.207031 67.894531 C 46.097656 67.894531 50.707031 72.25 50.707031 77.8125 L 50.707031 79.394531 C 50.707031 84.957031 46.097656 89.3125 40.207031 89.3125 Z M 40.207031 71.894531 C 36.5625 71.894531 33.707031 74.492188 33.707031 77.8125 L 33.707031 79.394531 C 33.707031 82.710938 36.5625 85.3125 40.207031 85.3125 C 43.851562 85.3125 46.707031 82.710938 46.707031 79.394531 L 46.707031 77.8125 C 46.707031 74.492188 43.851562 71.894531 40.207031 71.894531 Z M 40.207031 71.894531 "/>
<path style=" stroke:none;fill-rule:nonzero;fill:rgb(47.450981%,0.784314%,66.666669%);fill-opacity:1;" d="M 63.375 85.414062 C 63.375 89.789062 59.683594 93.332031 54.875 93.332031 C 50.0625 93.332031 46.375 89.789062 46.375 85.414062 L 46.375 83.832031 C 46.375 79.460938 50.0625 75.914062 54.875 75.914062 C 59.683594 75.914062 63.375 79.460938 63.375 83.832031 Z M 63.375 85.414062 "/>
<path style=" stroke:none;fill-rule:nonzero;fill:rgb(33.725491%,0%,47.843137%);fill-opacity:1;" d="M 54.875 95.332031 C 48.988281 95.332031 44.375 90.976562 44.375 85.414062 L 44.375 83.832031 C 44.375 78.269531 48.988281 73.914062 54.875 73.914062 C 60.761719 73.914062 65.375 78.269531 65.375 83.832031 L 65.375 85.414062 C 65.375 90.976562 60.761719 95.332031 54.875 95.332031 Z M 54.875 77.914062 C 51.230469 77.914062 48.375 80.511719 48.375 83.832031 L 48.375 85.414062 C 48.375 88.734375 51.230469 91.332031 54.875 91.332031 C 58.519531 91.332031 61.375 88.734375 61.375 85.414062 L 61.375 83.832031 C 61.375 80.511719 58.519531 77.914062 54.875 77.914062 Z M 54.875 77.914062 "/>
<path style=" stroke:none;fill-rule:nonzero;fill:rgb(47.450981%,0.784314%,66.666669%);fill-opacity:1;" d="M 81.042969 62.621094 C 81.042969 66.992188 77.183594 70.535156 72.375 70.535156 C 67.5625 70.535156 63.707031 66.992188 63.707031 62.621094 L 63.707031 61.035156 C 63.707031 56.664062 67.5625 53.117188 72.375 53.117188 C 77.183594 53.117188 81.042969 56.664062 81.042969 61.035156 Z M 81.042969 62.621094 "/>
<path style=" stroke:none;fill-rule:nonzero;fill:rgb(33.725491%,0%,47.843137%);fill-opacity:1;" d="M 72.375 72.535156 C 66.492188 72.535156 61.707031 68.089844 61.707031 62.621094 L 61.707031 61.035156 C 61.707031 55.566406 66.492188 51.117188 72.375 51.117188 C 78.257812 51.117188 83.042969 55.566406 83.042969 61.035156 L 83.042969 62.621094 C 83.042969 68.089844 78.257812 72.535156 72.375 72.535156 Z M 72.375 55.117188 C 68.699219 55.117188 65.707031 57.773438 65.707031 61.035156 L 65.707031 62.621094 C 65.707031 65.882812 68.699219 68.539062 72.375 68.539062 C 76.050781 68.539062 79.042969 65.882812 79.042969 62.621094 L 79.042969 61.035156 C 79.042969 57.773438 76.050781 55.117188 72.375 55.117188 Z M 72.375 55.117188 "/>
<path style=" stroke:none;fill-rule:nonzero;fill:rgb(47.450981%,0.784314%,66.666669%);fill-opacity:1;" d="M 79.375 49.285156 C 79.375 53.660156 75.6875 57.203125 70.875 57.203125 C 66.0625 57.203125 62.375 53.660156 62.375 49.285156 L 62.375 47.703125 C 62.375 43.328125 66.0625 39.785156 70.875 39.785156 C 75.6875 39.785156 79.375 43.328125 79.375 47.703125 Z M 79.375 49.285156 "/>
<path style=" stroke:none;fill-rule:nonzero;fill:rgb(33.725491%,0%,47.843137%);fill-opacity:1;" d="M 70.875 59.203125 C 64.988281 59.203125 60.375 54.847656 60.375 49.285156 L 60.375 47.703125 C 60.375 42.140625 64.988281 37.785156 70.875 37.785156 C 76.761719 37.785156 81.375 42.140625 81.375 47.703125 L 81.375 49.285156 C 81.375 54.847656 76.761719 59.203125 70.875 59.203125 Z M 70.875 41.785156 C 67.230469 41.785156 64.375 44.382812 64.375 47.703125 L 64.375 49.285156 C 64.375 52.605469 67.230469 55.203125 70.875 55.203125 C 74.519531 55.203125 77.375 52.605469 77.375 49.285156 L 77.375 47.703125 C 77.375 44.382812 74.519531 41.785156 70.875 41.785156 Z M 70.875 41.785156 "/>
<path style=" stroke:none;fill-rule:nonzero;fill:rgb(47.450981%,0.784314%,66.666669%);fill-opacity:1;" d="M 59.042969 40.363281 C 59.042969 44.734375 55.351562 48.28125 50.542969 48.28125 C 45.730469 48.28125 42.042969 44.734375 42.042969 40.363281 L 42.042969 38.777344 C 42.042969 34.40625 45.730469 30.859375 50.542969 30.859375 C 55.351562 30.859375 59.042969 34.40625 59.042969 38.777344 Z M 59.042969 40.363281 "/>
<path style=" stroke:none;fill-rule:nonzero;fill:rgb(33.725491%,0%,47.843137%);fill-opacity:1;" d="M 50.542969 50.28125 C 44.652344 50.28125 40.042969 45.921875 40.042969 40.363281 L 40.042969 38.777344 C 40.042969 33.214844 44.652344 28.859375 50.542969 28.859375 C 56.429688 28.859375 61.042969 33.214844 61.042969 38.777344 L 61.042969 40.363281 C 61.042969 45.921875 56.429688 50.28125 50.542969 50.28125 Z M 50.542969 32.859375 C 46.898438 32.859375 44.042969 35.460938 44.042969 38.777344 L 44.042969 40.363281 C 44.042969 43.679688 46.898438 46.28125 50.542969 46.28125 C 54.1875 46.28125 57.042969 43.679688 57.042969 40.363281 L 57.042969 38.777344 C 57.042969 35.460938 54.1875 32.859375 50.542969 32.859375 Z M 50.542969 32.859375 "/>
<path style=" stroke:none;fill-rule:nonzero;fill:rgb(47.450981%,0.784314%,66.666669%);fill-opacity:1;" d="M 71.375 42.320312 C 71.375 46.691406 67.519531 50.238281 62.707031 50.238281 C 57.898438 50.238281 54.042969 46.691406 54.042969 42.320312 L 54.042969 40.734375 C 54.042969 36.363281 57.898438 32.816406 62.707031 32.816406 C 67.519531 32.816406 71.375 36.363281 71.375 40.734375 Z M 71.375 42.320312 "/>
<path style=" stroke:none;fill-rule:nonzero;fill:rgb(33.725491%,0%,47.843137%);fill-opacity:1;" d="M 62.707031 52.238281 C 56.828125 52.238281 52.042969 47.789062 52.042969 42.320312 L 52.042969 40.734375 C 52.042969 35.265625 56.828125 30.816406 62.707031 30.816406 C 68.589844 30.816406 73.375 35.265625 73.375 40.734375 L 73.375 42.320312 C 73.375 47.789062 68.589844 52.238281 62.707031 52.238281 Z M 62.707031 34.816406 C 59.03125 34.816406 56.042969 37.472656 56.042969 40.734375 L 56.042969 42.320312 C 56.042969 45.582031 59.03125 48.238281 62.707031 48.238281 C 66.382812 48.238281 69.375 45.582031 69.375 42.320312 L 69.375 40.734375 C 69.375 37.472656 66.382812 34.816406 62.707031 34.816406 Z M 62.707031 34.816406 "/>
<path style=" stroke:none;fill-rule:nonzero;fill:rgb(47.450981%,0.784314%,66.666669%);fill-opacity:1;" d="M 55.375 51.113281 C 55.375 55.488281 51.519531 59.03125 46.707031 59.03125 C 41.898438 59.03125 38.042969 55.488281 38.042969 51.113281 L 38.042969 49.53125 C 38.042969 45.15625 41.898438 41.613281 46.707031 41.613281 C 51.519531 41.613281 55.375 45.15625 55.375 49.53125 Z M 55.375 51.113281 "/>
<path style=" stroke:none;fill-rule:nonzero;fill:rgb(33.725491%,0%,47.843137%);fill-opacity:1;" d="M 46.707031 61.03125 C 40.828125 61.03125 36.042969 56.582031 36.042969 51.113281 L 36.042969 49.53125 C 36.042969 44.0625 40.828125 39.613281 46.707031 39.613281 C 52.589844 39.613281 57.375 44.0625 57.375 49.53125 L 57.375 51.113281 C 57.375 56.582031 52.589844 61.03125 46.707031 61.03125 Z M 46.707031 43.613281 C 43.03125 43.613281 40.042969 46.269531 40.042969 49.53125 L 40.042969 51.113281 C 40.042969 54.378906 43.03125 57.03125 46.707031 57.03125 C 50.382812 57.03125 53.375 54.378906 53.375 51.113281 L 53.375 49.53125 C 53.375 46.269531 50.382812 43.613281 46.707031 43.613281 Z M 46.707031 43.613281 "/>
<path style=" stroke:none;fill-rule:nonzero;fill:rgb(47.450981%,0.784314%,66.666669%);fill-opacity:1;" d="M 49.707031 63.050781 C 49.707031 67.421875 46.019531 70.96875 41.207031 70.96875 C 36.398438 70.96875 32.707031 67.421875 32.707031 63.050781 L 32.707031 61.464844 C 32.707031 57.09375 36.398438 53.546875 41.207031 53.546875 C 46.019531 53.546875 49.707031 57.09375 49.707031 61.464844 Z M 49.707031 63.050781 "/>
<path style=" stroke:none;fill-rule:nonzero;fill:rgb(33.725491%,0%,47.843137%);fill-opacity:1;" d="M 41.207031 72.96875 C 35.320312 72.96875 30.707031 68.609375 30.707031 63.050781 L 30.707031 61.464844 C 30.707031 55.90625 35.320312 51.546875 41.207031 51.546875 C 47.097656 51.546875 51.707031 55.90625 51.707031 61.464844 L 51.707031 63.050781 C 51.707031 68.609375 47.097656 72.96875 41.207031 72.96875 Z M 41.207031 55.546875 C 37.5625 55.546875 34.707031 58.148438 34.707031 61.464844 L 34.707031 63.050781 C 34.707031 66.367188 37.5625 68.96875 41.207031 68.96875 C 44.851562 68.96875 47.707031 66.367188 47.707031 63.050781 L 47.707031 61.464844 C 47.707031 58.148438 44.851562 55.546875 41.207031 55.546875 Z M 41.207031 55.546875 "/>
<path style=" stroke:none;fill-rule:nonzero;fill:rgb(47.450981%,0.784314%,66.666669%);fill-opacity:1;" d="M 82.707031 72.082031 C 82.707031 76.453125 79.019531 80 74.207031 80 C 69.398438 80 65.707031 76.453125 65.707031 72.082031 L 65.707031 70.5 C 65.707031 66.125 69.398438 62.582031 74.207031 62.582031 C 79.019531 62.582031 82.707031 66.125 82.707031 70.5 Z M 82.707031 72.082031 "/>
<path style=" stroke:none;fill-rule:nonzero;fill:rgb(33.725491%,0%,47.843137%);fill-opacity:1;" d="M 74.207031 82 C 68.320312 82 63.707031 77.644531 63.707031 72.082031 L 63.707031 70.5 C 63.707031 64.9375 68.320312 60.582031 74.207031 60.582031 C 80.097656 60.582031 84.707031 64.9375 84.707031 70.5 L 84.707031 72.082031 C 84.707031 77.644531 80.097656 82 74.207031 82 Z M 74.207031 64.582031 C 70.5625 64.582031 67.707031 67.179688 67.707031 70.5 L 67.707031 72.082031 C 67.707031 75.398438 70.5625 78 74.207031 78 C 77.851562 78 80.707031 75.398438 80.707031 72.082031 L 80.707031 70.5 C 80.707031 67.179688 77.851562 64.582031 74.207031 64.582031 Z M 74.207031 64.582031 "/>
<path style=" stroke:none;fill-rule:nonzero;fill:rgb(47.450981%,0.784314%,66.666669%);fill-opacity:1;" d="M 75.375 79.824219 C 75.375 84.195312 71.519531 87.742188 66.707031 87.742188 C 61.898438 87.742188 58.042969 84.195312 58.042969 79.824219 L 58.042969 78.242188 C 58.042969 73.867188 61.898438 70.324219 66.707031 70.324219 C 71.519531 70.324219 75.375 73.867188 75.375 78.242188 Z M 75.375 79.824219 "/>
<path style=" stroke:none;fill-rule:nonzero;fill:rgb(33.725491%,0%,47.843137%);fill-opacity:1;" d="M 66.707031 89.742188 C 60.828125 89.742188 56.042969 85.292969 56.042969 79.824219 L 56.042969 78.242188 C 56.042969 72.773438 60.828125 68.324219 66.707031 68.324219 C 72.589844 68.324219 77.375 72.773438 77.375 78.242188 L 77.375 79.824219 C 77.375 85.292969 72.589844 89.742188 66.707031 89.742188 Z M 66.707031 72.324219 C 63.03125 72.324219 60.042969 74.976562 60.042969 78.242188 L 60.042969 79.824219 C 60.042969 83.085938 63.03125 85.742188 66.707031 85.742188 C 70.382812 85.742188 73.375 83.085938 73.375 79.824219 L 73.375 78.242188 C 73.375 74.976562 70.382812 72.324219 66.707031 72.324219 Z M 66.707031 72.324219 "/>
<path style=" stroke:none;fill-rule:nonzero;fill:rgb(47.450981%,0.784314%,66.666669%);fill-opacity:1;" d="M 81.707031 60.039062 C 81.707031 64.410156 77.851562 67.957031 73.042969 67.957031 C 68.230469 67.957031 64.375 64.410156 64.375 60.039062 L 64.375 58.457031 C 64.375 54.082031 68.230469 50.539062 73.042969 50.539062 C 77.851562 50.539062 81.707031 54.082031 81.707031 58.457031 Z M 81.707031 60.039062 "/>
<path style=" stroke:none;fill-rule:nonzero;fill:rgb(33.725491%,0%,47.843137%);fill-opacity:1;" d="M 73.042969 69.957031 C 67.160156 69.957031 62.375 65.507812 62.375 60.039062 L 62.375 58.457031 C 62.375 52.988281 67.160156 48.539062 73.042969 48.539062 C 78.921875 48.539062 83.707031 52.988281 83.707031 58.457031 L 83.707031 60.039062 C 83.707031 65.507812 78.921875 69.957031 73.042969 69.957031 Z M 73.042969 52.539062 C 69.367188 52.539062 66.375 55.191406 66.375 58.457031 L 66.375 60.039062 C 66.375 63.300781 69.367188 65.957031 73.042969 65.957031 C 76.71875 65.957031 79.707031 63.300781 79.707031 60.039062 L 79.707031 58.457031 C 79.707031 55.191406 76.71875 52.539062 73.042969 52.539062 Z M 73.042969 52.539062 "/>
<path style=" stroke:none;fill-rule:nonzero;fill:rgb(47.450981%,0.784314%,66.666669%);fill-opacity:1;" d="M 67.707031 59.941406 C 67.707031 64.316406 63.851562 67.859375 59.042969 67.859375 C 54.230469 67.859375 50.375 64.316406 50.375 59.941406 L 50.375 58.359375 C 50.375 53.984375 54.230469 50.441406 59.042969 50.441406 C 63.851562 50.441406 67.707031 53.984375 67.707031 58.359375 Z M 67.707031 59.941406 "/>
<path style=" stroke:none;fill-rule:nonzero;fill:rgb(33.725491%,0%,47.843137%);fill-opacity:1;" d="M 59.042969 69.859375 C 53.160156 69.859375 48.375 65.410156 48.375 59.941406 L 48.375 58.359375 C 48.375 52.890625 53.160156 48.441406 59.042969 48.441406 C 64.921875 48.441406 69.707031 52.890625 69.707031 58.359375 L 69.707031 59.941406 C 69.707031 65.410156 64.921875 69.859375 59.042969 69.859375 Z M 59.042969 52.441406 C 55.367188 52.441406 52.375 55.09375 52.375 58.359375 L 52.375 59.941406 C 52.375 63.207031 55.367188 65.859375 59.042969 65.859375 C 62.71875 65.859375 65.707031 63.207031 65.707031 59.941406 L 65.707031 58.359375 C 65.707031 55.09375 62.71875 52.441406 59.042969 52.441406 Z M 59.042969 52.441406 "/>
<path style=" stroke:none;fill-rule:nonzero;fill:rgb(100%,100%,100%);fill-opacity:1;" d="M 62.742188 76.148438 C 62.742188 77.070312 63.488281 77.816406 64.410156 77.816406 C 65.328125 77.816406 66.074219 77.070312 66.074219 76.148438 C 66.074219 75.230469 65.328125 74.484375 64.410156 74.484375 C 63.488281 74.484375 62.742188 75.230469 62.742188 76.148438 Z M 62.742188 76.148438 "/>
<path style=" stroke:none;fill-rule:nonzero;fill:rgb(47.450981%,0.784314%,66.666669%);fill-opacity:1;" d="M 62.375 77.242188 C 62.375 81.617188 58.683594 85.160156 53.875 85.160156 C 49.066406 85.160156 45.375 81.617188 45.375 77.242188 L 45.375 75.660156 C 45.375 71.285156 49.066406 67.742188 53.875 67.742188 C 58.683594 67.742188 62.375 71.285156 62.375 75.660156 Z M 62.375 77.242188 "/>
<path style=" stroke:none;fill-rule:nonzero;fill:rgb(33.725491%,0%,47.843137%);fill-opacity:1;" d="M 53.875 87.160156 C 47.988281 87.160156 43.375 82.804688 43.375 77.242188 L 43.375 75.660156 C 43.375 70.097656 47.988281 65.742188 53.875 65.742188 C 59.761719 65.742188 64.375 70.097656 64.375 75.660156 L 64.375 77.242188 C 64.375 82.804688 59.761719 87.160156 53.875 87.160156 Z M 53.875 69.742188 C 50.230469 69.742188 47.375 72.339844 47.375 75.660156 L 47.375 77.242188 C 47.375 80.5625 50.230469 83.160156 53.875 83.160156 C 57.519531 83.160156 60.375 80.5625 60.375 77.242188 L 60.375 75.660156 C 60.375 72.339844 57.519531 69.742188 53.875 69.742188 Z M 53.875 69.742188 "/>
<path style=" stroke:none;fill-rule:nonzero;fill:rgb(100%,100%,100%);fill-opacity:1;" d="M 37.410156 59.648438 C 37.410156 60.570312 38.15625 61.316406 39.074219 61.316406 C 39.996094 61.316406 40.742188 60.570312 40.742188 59.648438 C 40.742188 58.730469 39.996094 57.984375 39.074219 57.984375 C 38.15625 57.984375 37.410156 58.730469 37.410156 59.648438 Z M 37.410156 59.648438 "/>
<path style=" stroke:none;fill-rule:nonzero;fill:rgb(100%,100%,100%);fill-opacity:1;" d="M 25.242188 52.816406 C 25.242188 53.738281 25.988281 54.484375 26.910156 54.484375 C 27.828125 54.484375 28.574219 53.738281 28.574219 52.816406 C 28.574219 51.894531 27.828125 51.148438 26.910156 51.148438 C 25.988281 51.148438 25.242188 51.894531 25.242188 52.816406 Z M 25.242188 52.816406 "/>
<path style=" stroke:none;fill-rule:nonzero;fill:rgb(100%,100%,100%);fill-opacity:1;" d="M 42.574219 47.484375 C 42.574219 48.402344 43.320312 49.148438 44.242188 49.148438 C 45.164062 49.148438 45.910156 48.402344 45.910156 47.484375 C 45.910156 46.5625 45.164062 45.816406 44.242188 45.816406 C 43.320312 45.816406 42.574219 46.5625 42.574219 47.484375 Z M 42.574219 47.484375 "/>
<path style=" stroke:none;fill-rule:nonzero;fill:rgb(100%,100%,100%);fill-opacity:1;" d="M 58.574219 38.816406 C 58.574219 39.738281 59.320312 40.484375 60.242188 40.484375 C 61.164062 40.484375 61.910156 39.738281 61.910156 38.816406 C 61.910156 37.894531 61.164062 37.148438 60.242188 37.148438 C 59.320312 37.148438 58.574219 37.894531 58.574219 38.816406 Z M 58.574219 38.816406 "/>
<path style=" stroke:none;fill-rule:nonzero;fill:rgb(100%,100%,100%);fill-opacity:1;" d="M 32.574219 40.816406 C 32.574219 41.738281 33.320312 42.484375 34.242188 42.484375 C 35.164062 42.484375 35.910156 41.738281 35.910156 40.816406 C 35.910156 39.898438 35.164062 39.148438 34.242188 39.148438 C 33.320312 39.148438 32.574219 39.898438 32.574219 40.816406 Z M 32.574219 40.816406 "/>
<path style=" stroke:none;fill-rule:nonzero;fill:rgb(100%,100%,100%);fill-opacity:1;" d="M 46.242188 36.484375 C 46.242188 37.40625 46.988281 38.152344 47.910156 38.152344 C 48.828125 38.152344 49.574219 37.40625 49.574219 36.484375 C 49.574219 35.5625 48.828125 34.816406 47.910156 34.816406 C 46.988281 34.816406 46.242188 35.5625 46.242188 36.484375 Z M 46.242188 36.484375 "/>
<path style=" stroke:none;fill-rule:nonzero;fill:rgb(100%,100%,100%);fill-opacity:1;" d="M 26.574219 66.316406 C 26.574219 67.238281 27.320312 67.984375 28.242188 67.984375 C 29.164062 67.984375 29.910156 67.238281 29.910156 66.316406 C 29.910156 65.398438 29.164062 64.648438 28.242188 64.648438 C 27.320312 64.648438 26.574219 65.398438 26.574219 66.316406 Z M 26.574219 66.316406 "/>
<path style=" stroke:none;fill-rule:nonzero;fill:rgb(100%,100%,100%);fill-opacity:1;" d="M 55.742188 56.984375 C 55.742188 57.902344 56.488281 58.648438 57.410156 58.648438 C 58.328125 58.648438 59.074219 57.902344 59.074219 56.984375 C 59.074219 56.0625 58.328125 55.316406 57.410156 55.316406 C 56.488281 55.316406 55.742188 56.0625 55.742188 56.984375 Z M 55.742188 56.984375 "/>
<path style=" stroke:none;fill-rule:nonzero;fill:rgb(100%,100%,100%);fill-opacity:1;" d="M 70.242188 56.984375 C 70.242188 57.902344 70.988281 58.648438 71.910156 58.648438 C 72.828125 58.648438 73.574219 57.902344 73.574219 56.984375 C 73.574219 56.0625 72.828125 55.316406 71.910156 55.316406 C 70.988281 55.316406 70.242188 56.0625 70.242188 56.984375 Z M 70.242188 56.984375 "/>
<path style=" stroke:none;fill-rule:nonzero;fill:rgb(100%,100%,100%);fill-opacity:1;" d="M 50.410156 73.816406 C 50.410156 74.738281 51.15625 75.484375 52.074219 75.484375 C 52.996094 75.484375 53.742188 74.738281 53.742188 73.816406 C 53.742188 72.894531 52.996094 72.148438 52.074219 72.148438 C 51.15625 72.148438 50.410156 72.894531 50.410156 73.816406 Z M 50.410156 73.816406 "/>
<path style=" stroke:none;fill-rule:nonzero;fill:rgb(100%,100%,100%);fill-opacity:1;" d="M 36.742188 76.148438 C 36.742188 77.070312 37.488281 77.816406 38.410156 77.816406 C 39.328125 77.816406 40.074219 77.070312 40.074219 76.148438 C 40.074219 75.230469 39.328125 74.484375 38.410156 74.484375 C 37.488281 74.484375 36.742188 75.230469 36.742188 76.148438 Z M 36.742188 76.148438 "/>
</g>
</svg>
