<?xml version="1.0" encoding="UTF-8"?>
<svg xmlns="http://www.w3.org/2000/svg" xmlns:xlink="http://www.w3.org/1999/xlink" width="100px" height="100px" viewBox="0 0 100 100" version="1.1">
<g id="surface1">
<path style=" stroke:none;fill-rule:nonzero;fill:rgb(55.686277%,30.19608%,18.431373%);fill-opacity:1;" d="M 83.9375 29.640625 L 90.195312 29 C 90.195312 29 91.742188 34.046875 93.046875 36.84375 C 94.34375 39.648438 96.648438 42.34375 96.648438 42.34375 C 96.648438 42.34375 96.046875 52.648438 94.546875 63.257812 C 93.046875 73.867188 89.03125 77.523438 87.757812 79.390625 C 86.085938 81.835938 82.726562 85.179688 81.328125 87.882812 C 79.929688 90.585938 78.945312 91.773438 78.34375 91.875 C 77.742188 91.976562 71.554688 93.742188 67.953125 94.445312 C 64.351562 95.148438 55.992188 97.148438 55.992188 97.148438 C 55.992188 97.148438 49.328125 95.679688 47.726562 95.476562 C 46.125 95.273438 44.023438 95.976562 43.523438 95.578125 C 43.023438 95.179688 38.523438 91.875 34.421875 90.078125 C 30.320312 88.28125 27.015625 87.875 26.617188 87.078125 C 26.21875 86.28125 25.515625 83.875 24.117188 81.976562 C 22.71875 80.078125 21.367188 78.804688 21.367188 78.804688 L 27.125 62.265625 Z M 83.9375 29.640625 "/>
<path style=" stroke:none;fill-rule:nonzero;fill:rgb(55.686277%,30.19608%,18.431373%);fill-opacity:1;" d="M 16.367188 40.648438 C 16.367188 40.648438 17.203125 37.976562 11.6875 35.132812 C 8.21875 33.34375 5 33.796875 5 35.132812 C 5 36.46875 7.34375 35.632812 10.015625 38.976562 C 12.6875 42.320312 15.03125 46.835938 15.03125 46.835938 Z M 16.367188 40.648438 "/>
<path style=" stroke:none;fill-rule:nonzero;fill:rgb(55.686277%,30.19608%,18.431373%);fill-opacity:1;" d="M 21.28125 30.007812 C 21.28125 30.007812 22.382812 27.882812 22.304688 26.054688 C 22.234375 24.226562 20.84375 22.835938 21.5 22.023438 C 22.15625 21.21875 24.648438 23.34375 25.234375 25.242188 C 25.953125 27.59375 25.890625 28.6875 25.890625 28.6875 L 22.085938 31.90625 Z M 21.28125 30.007812 "/>
<path style=" stroke:none;fill-rule:nonzero;fill:rgb(55.686277%,30.19608%,18.431373%);fill-opacity:1;" d="M 62.21875 12.375 C 62.21875 12.375 60.609375 11.203125 60.679688 7.617188 C 60.726562 5.273438 61.195312 3.445312 62 3.515625 C 62.804688 3.585938 63.023438 5.203125 63.90625 7.835938 C 64.78125 10.46875 67.421875 13.257812 67.421875 13.257812 Z M 62.21875 12.375 "/>
<path style=" stroke:none;fill-rule:nonzero;fill:rgb(55.686277%,30.19608%,18.431373%);fill-opacity:1;" d="M 82.429688 20.28125 C 82.429688 20.28125 82.210938 15.226562 82.71875 12.59375 C 83.125 10.523438 84.40625 9.375 85.132812 9.882812 C 85.585938 10.203125 84.914062 10.835938 85.351562 15.085938 C 85.578125 17.289062 86.742188 25.484375 86.742188 25.484375 Z M 82.429688 20.28125 "/>
<path style=" stroke:none;fill-rule:nonzero;fill:rgb(55.686277%,30.19608%,18.431373%);fill-opacity:1;" d="M 14.015625 66.515625 C 14.015625 66.515625 12.84375 65.640625 9.257812 64.539062 C 7.4375 63.984375 3.09375 63.421875 3.179688 64.539062 C 3.25 65.492188 4.640625 65.492188 9.039062 67.757812 C 13.429688 70.03125 16.945312 73.765625 16.945312 73.546875 C 16.945312 73.328125 14.015625 66.515625 14.015625 66.515625 Z M 14.015625 66.515625 "/>
<path style=" stroke:none;fill-rule:nonzero;fill:rgb(32.549021%,17.647059%,11.372549%);fill-opacity:1;" d="M 11.171875 53.75 C 11.171875 55.289062 8.609375 59.171875 8.679688 60.195312 C 8.75 61.21875 11.171875 65.320312 11.898438 66.492188 C 12.632812 67.664062 13.21875 70.445312 13.21875 70.445312 C 13.21875 70.445312 15.632812 73.890625 17.46875 75.570312 C 19.296875 77.257812 21.351562 78.789062 21.351562 78.789062 C 21.351562 78.789062 24.0625 78.5 27.648438 79.078125 C 31.234375 79.664062 30.007812 80.398438 35.210938 80.695312 C 40.414062 80.992188 41.554688 80.179688 47.773438 79.296875 C 53.992188 78.414062 60.984375 77.257812 60.984375 77.257812 C 60.984375 77.257812 70.554688 71.882812 78.703125 63.726562 C 83.53125 58.898438 87.664062 49.703125 88.90625 47.726562 C 90.148438 45.75 90.875 42.65625 90.945312 41.929688 C 91.015625 41.195312 89.65625 35.789062 89.65625 33.445312 C 89.65625 31.101562 90.296875 29.890625 90.1875 28.992188 C 90.078125 28.039062 85.289062 21.085938 83.226562 18.8125 C 81.179688 16.554688 75.757812 11.710938 74.507812 12.21875 L 73.265625 12.734375 C 73.265625 12.734375 67.773438 10.460938 63.304688 10.460938 C 58.835938 10.460938 57.078125 11.257812 54.445312 11.335938 C 52.101562 11.40625 52.6875 10.601562 50.929688 10.679688 C 49.46875 10.742188 44.5625 13.367188 41.4375 14.96875 C 38.671875 16.390625 32.914062 18.515625 30.789062 20.34375 C 28.664062 22.171875 24.054688 26.421875 23.609375 27.15625 C 23.171875 27.890625 22.804688 29.429688 22.804688 29.429688 C 22.804688 29.429688 18.484375 28.773438 17.601562 29.578125 C 16.726562 30.382812 14.742188 38.296875 13.570312 40.78125 C 12.398438 43.265625 9.03125 50.664062 9.539062 51.25 C 10.070312 51.84375 11.171875 53.75 11.171875 53.75 Z M 11.171875 53.75 "/>
<path style=" stroke:none;fill-rule:nonzero;fill:rgb(99.607843%,100%,100%);fill-opacity:1;" d="M 21.976562 69.625 C 21.976562 69.625 19.640625 66.859375 18.28125 63.742188 C 16.664062 60.054688 16.09375 54.289062 16.78125 50.484375 C 17.5 46.539062 17.78125 44.53125 19.78125 39.765625 C 21.328125 36.078125 23.46875 33.3125 26.234375 30.773438 C 27.242188 29.851562 28.671875 29.992188 31.625 27.164062 C 34.578125 24.335938 40.453125 18.726562 49.976562 17.054688 C 59.5 15.382812 62.59375 16.257812 66.851562 16.914062 C 69.867188 17.375 71.234375 19.3125 73.296875 20.078125 C 75.351562 20.851562 77.226562 21.171875 79.484375 23.046875 C 81.078125 24.367188 82.398438 26.0625 82.789062 27.992188 C 83.171875 29.921875 82.328125 30.96875 82.257812 31.625 C 82.148438 32.726562 84.671875 33.53125 84.242188 39.375 C 83.859375 44.648438 80.640625 56.484375 65.203125 66.90625 C 49.765625 77.328125 31.117188 74.242188 31.117188 74.242188 C 31.117188 74.242188 30.507812 71.484375 27.914062 69.90625 C 24.539062 67.875 21.976562 69.625 21.976562 69.625 Z M 21.976562 69.625 "/>
<path style=" stroke:none;fill-rule:nonzero;fill:rgb(87.843138%,87.843138%,87.843138%);fill-opacity:1;" d="M 32.71875 31.921875 C 20.90625 41.4375 22.015625 52.460938 22.015625 52.460938 C 22.015625 52.460938 16.367188 54.132812 16.859375 56.617188 C 17.320312 59 22.789062 57.21875 22.789062 57.21875 L 23.429688 59.921875 C 23.429688 59.921875 17.304688 61.867188 18.796875 64.609375 C 19.875 66.59375 29.460938 61.84375 29.460938 61.84375 L 74.632812 36.414062 C 74.632812 36.414062 83.671875 31.453125 81.703125 28.546875 C 80.179688 26.296875 76.921875 29.0625 76.921875 29.0625 C 76.921875 29.0625 75.984375 27.96875 74.546875 27.078125 C 73.234375 26.265625 71.851562 25.4375 71.851562 25.4375 C 71.851562 25.4375 75.65625 22.226562 73.46875 20.554688 C 71.28125 18.882812 68.0625 23.515625 68.0625 23.515625 C 68.0625 23.515625 63.078125 21.9375 59.085938 22.070312 C 55.101562 22.195312 50.820312 22.992188 50.820312 22.992188 C 50.820312 22.992188 50.585938 17.09375 47.515625 17.898438 C 44.742188 18.625 46.320312 24.28125 46.320312 24.28125 C 46.320312 24.28125 40.1875 25.90625 32.71875 31.921875 Z M 32.71875 31.921875 "/>
<path style=" stroke:none;fill-rule:nonzero;fill:rgb(87.843138%,87.843138%,87.843138%);fill-opacity:1;" d="M 37.328125 62.882812 L 33.570312 64.5625 C 33.570312 64.5625 30.953125 71.695312 33.65625 73.109375 C 36.359375 74.523438 39.179688 64.867188 39.179688 64.867188 Z M 37.328125 62.882812 "/>
<path style=" stroke:none;fill-rule:nonzero;fill:rgb(88.235295%,88.235295%,88.235295%);fill-opacity:1;" d="M 59.195312 56.578125 L 55.679688 61.0625 C 55.679688 61.0625 57.78125 65.195312 58.679688 66.742188 C 59.578125 68.289062 60.484375 69.054688 61.898438 68.289062 C 63.3125 67.515625 63.445312 66.234375 62.539062 64.429688 C 61.632812 62.625 59.195312 56.578125 59.195312 56.578125 Z M 59.195312 56.578125 "/>
<path style=" stroke:none;fill-rule:nonzero;fill:rgb(69.411767%,69.411767%,69.411767%);fill-opacity:1;" d="M 40.023438 32.007812 C 26.960938 40.203125 23.046875 53.875 27.679688 61.46875 C 32.3125 69.0625 52.984375 66.765625 62.601562 59.820312 C 73.046875 52.28125 78.273438 43.226562 76.085938 35.289062 C 74.890625 30.953125 70.75 28.859375 66.359375 27.445312 C 59.242188 25.164062 48.773438 26.523438 40.023438 32.007812 Z M 40.023438 32.007812 "/>
<path style=" stroke:none;fill-rule:nonzero;fill:rgb(32.549021%,17.647059%,11.372549%);fill-opacity:1;" d="M 72.570312 78.875 C 71.109375 79.75 72.570312 82.09375 73.601562 84.664062 C 74.632812 87.234375 75.359375 89.75 76.945312 88.78125 C 78.4375 87.867188 76.6875 84.28125 75.914062 82.609375 C 75.140625 80.9375 74.171875 77.921875 72.570312 78.875 Z M 72.570312 78.875 "/>
<path style=" stroke:none;fill-rule:nonzero;fill:rgb(32.549021%,17.647059%,11.372549%);fill-opacity:1;" d="M 83.632812 65.242188 C 81.695312 65.242188 81.960938 67.429688 81.320312 71.15625 C 80.679688 74.890625 80.179688 76.546875 82.21875 76.8125 C 83.554688 76.992188 83.554688 74.210938 84.148438 70.507812 C 84.578125 67.835938 85.179688 65.242188 83.632812 65.242188 Z M 83.632812 65.242188 "/>
<path style=" stroke:none;fill-rule:nonzero;fill:rgb(32.549021%,17.647059%,11.372549%);fill-opacity:1;" d="M 90.578125 56.59375 C 89.296875 56.664062 89.578125 59.664062 89.617188 63.640625 C 89.648438 66.601562 89.203125 70.296875 90.976562 70.132812 C 92.445312 69.992188 92.1875 65.375 92.25 62.539062 C 92.351562 58.414062 92.609375 56.484375 90.578125 56.59375 Z M 90.578125 56.59375 "/>
<path style=" stroke:none;fill-rule:nonzero;fill:rgb(32.549021%,17.647059%,11.372549%);fill-opacity:1;" d="M 55.078125 85.304688 C 54.335938 86.3125 55.460938 87.96875 58.164062 89.9375 C 60.640625 91.742188 62.734375 93.453125 63.695312 92.382812 C 65.09375 90.828125 62.890625 89.507812 60.476562 87.492188 C 58.039062 85.453125 56.21875 83.757812 55.078125 85.304688 Z M 55.078125 85.304688 "/>
<path style=" stroke:none;fill-rule:nonzero;fill:rgb(32.549021%,17.647059%,11.372549%);fill-opacity:1;" d="M 35.914062 85.695312 C 35.03125 87.109375 37.34375 88.726562 40.03125 90.96875 C 42.34375 92.898438 44.757812 95.304688 46.078125 93.796875 C 46.945312 92.804688 44.8125 90.640625 41.960938 88.265625 C 39.640625 86.335938 37.351562 83.375 35.914062 85.695312 Z M 35.914062 85.695312 "/>
</g>
</svg>
